<?xml version="1.0" encoding="UTF-8" standalone="no"?>
<!-- Created with Inkscape (http://www.inkscape.org/) -->

<svg
   version="1.1"
   id="svg1"
   width="188.52727cm"
   height="264.05527cm"
   viewBox="0 0 188.52726 264.05527"
   sodipodi:docname="ntcn.svg"
   inkscape:version="1.4.2 (f4327f4, 2025-05-13)"
   inkscape:export-filename="ГОТОВЫЕ МАКЕТЫ\body.svg"
   inkscape:export-xdpi="96"
   inkscape:export-ydpi="96"
   xml:space="preserve"
   xmlns:inkscape="http://www.inkscape.org/namespaces/inkscape"
   xmlns:sodipodi="http://sodipodi.sourceforge.net/DTD/sodipodi-0.dtd"
   xmlns="http://www.w3.org/2000/svg"
   xmlns:svg="http://www.w3.org/2000/svg"><sodipodi:namedview
     id="namedview1"
     pagecolor="#ffffff"
     bordercolor="#000000"
     borderopacity="0.25"
     inkscape:showpageshadow="2"
     inkscape:pageopacity="0.0"
     inkscape:pagecheckerboard="false"
     inkscape:deskcolor="#d1d1d1"
     inkscape:zoom="0.35355339"
     inkscape:cx="1639.0735"
     inkscape:cy="1056.4175"
     inkscape:window-width="1920"
     inkscape:window-height="1129"
     inkscape:window-x="-8"
     inkscape:window-y="-8"
     inkscape:window-maximized="1"
     inkscape:current-layer="layer2"
     inkscape:document-units="cm"
     showgrid="true"
     showguides="false"
     inkscape:lockguides="false"
     inkscape:clip-to-page="false"><inkscape:grid
       id="grid31"
       units="cm"
       originx="-306.1305"
       originy="-259.85138"
       spacingx="2"
       spacingy="9.9999999"
       empcolor="#0099e5"
       empopacity="0.30196078"
       color="#0099e5"
       opacity="0.14902"
       empspacing="5"
       enabled="false"
       visible="true" /><inkscape:grid
       id="grid32"
       units="mm"
       originx="-446.1305"
       originy="-259.85138"
       spacingx="0"
       spacingy="0"
       empcolor="#0099e5"
       empopacity="0.30196078"
       color="#0099e5"
       opacity="0.14902"
       empspacing="5"
       enabled="true"
       visible="true" /><inkscape:page
       x="-8.2745421e-13"
       y="0"
       width="188.52727"
       height="264.05527"
       id="page1"
       margin="0"
       bleed="0" /></sodipodi:namedview><defs
     id="defs1" /><g
     inkscape:groupmode="layer"
     id="layer23"
     inkscape:label="ПОЛОЧКА"
     style="display:inline"
     transform="translate(-446.13051,-259.85138)"><g
       inkscape:groupmode="layer"
       id="layer2"
       inkscape:label="ПОЛОЧКА"
       style="display:inline"
       sodipodi:insensitive="true"><path
         id="path1-89"
         style="display:inline;fill:none;fill-opacity:1;stroke:#000000;stroke-width:0.64;stroke-dasharray:none;stroke-opacity:1"
         d="m 626.93201,521.98682 c 2.15331,-8.32387 1.65132,-14.77155 1.96858,-22.72821 l -2.31405,-88.62772 c -2.86061,-21.58564 -3.67626,-43.9471 -2.76751,-66.2105 0.3627,-24.54123 3.14265,-46.85652 10.4491,-62.42218 -2.17912,-1.99454 -6.08787,-4.04675 -10.83358,-6.07824 -4.74572,-2.03151 -10.3284,-4.04229 -15.85535,-5.95398 -8.52268,-2.93672 -17.37694,-5.40755 -25.35165,-9.65375 -2.65257,8.02187 -11.82233,40.58803 -41.83336,40.58803 -30.01103,0 -39.18079,-32.56616 -41.83336,-40.58803 -7.97471,4.2462 -16.82897,6.71703 -25.35165,9.65375 -5.52695,1.91169 -11.10963,3.92247 -15.85535,5.95398 -4.74571,2.03149 -8.65446,4.0837 -10.83358,6.07824 7.30645,15.56566 10.0864,37.88095 10.4491,62.42218 0.90875,22.2634 0.0931,44.62486 -2.76751,66.2105 l -2.31405,88.62772 c 0.31726,7.95666 -0.18473,14.40434 1.96858,22.72821 28.96039,1.35493 57.67535,1.71362 86.53782,1.57056 28.86247,0.14306 57.57743,-0.21563 86.53782,-1.57056 z"
         sodipodi:nodetypes="cccccsccsccsccccccc"
         sodipodi:insensitive="true" /></g></g><style
     type="text/css"
     id="style1">
	.st0{fill:#000000;}
</style><style
     type="text/css"
     id="style1-7">
	.st0{fill:#000000;}
</style></svg>
