<?xml version="1.0" encoding="UTF-8" standalone="no"?>
<!-- Created with Inkscape (http://www.inkscape.org/) -->

<svg
   version="1.1"
   id="svg1"
   width="100cm"
   height="100cm"
   viewBox="0 0 1000 1000"
   sodipodi:docname="body.svg"
   inkscape:version="1.4.2 (f4327f4, 2025-05-13)"
   inkscape:export-filename="ГОТОВЫЕ МАКЕТЫ\ВТАЧНОЙ ЛЕВЫЙ РУКАВ.svg"
   inkscape:export-xdpi="96"
   inkscape:export-ydpi="96"
   xml:space="preserve"
   xmlns:inkscape="http://www.inkscape.org/namespaces/inkscape"
   xmlns:sodipodi="http://sodipodi.sourceforge.net/DTD/sodipodi-0.dtd"
   xmlns="http://www.w3.org/2000/svg"
   xmlns:svg="http://www.w3.org/2000/svg"><sodipodi:namedview
     id="namedview1"
     pagecolor="#ffffff"
     bordercolor="#000000"
     borderopacity="0.25"
     inkscape:showpageshadow="2"
     inkscape:pageopacity="0.0"
     inkscape:pagecheckerboard="false"
     inkscape:deskcolor="#d1d1d1"
     inkscape:zoom="0.5"
     inkscape:cx="1900"
     inkscape:cy="1345"
     inkscape:window-width="2560"
     inkscape:window-height="1369"
     inkscape:window-x="-8"
     inkscape:window-y="-8"
     inkscape:window-maximized="1"
     inkscape:current-layer="layer2"
     inkscape:document-units="cm"
     showgrid="true"
     showguides="false"
     inkscape:lockguides="false"><inkscape:page
       x="0"
       y="0"
       width="1000"
       height="1000"
       id="page2"
       margin="0"
       bleed="0" /><inkscape:grid
       id="grid31"
       units="cm"
       originx="140"
       originy="0"
       spacingx="2"
       spacingy="9.9999999"
       empcolor="#0099e5"
       empopacity="0.30196078"
       color="#0099e5"
       opacity="0.14902"
       empspacing="5"
       enabled="false"
       visible="true" /><inkscape:grid
       id="grid32"
       units="mm"
       originx="0"
       originy="0"
       spacingx="0"
       spacingy="0"
       empcolor="#0099e5"
       empopacity="0.30196078"
       color="#0099e5"
       opacity="0.14902"
       empspacing="5"
       enabled="true"
       visible="true" /></sodipodi:namedview><defs
     id="defs1" /><g
     inkscape:groupmode="layer"
     id="layer2"
     inkscape:label="ПОЛОЧКА"
     style="display:inline"><path
       style="display:inline;opacity:1;fill:none;fill-opacity:1;stroke:#000000;stroke-width:0.64;stroke-dasharray:none;stroke-opacity:1"
       d="m 456.96935,344.72883 c 0.32088,27.84915 0.1059,34.90088 -2.76751,66.21056 l -2.31405,88.62772 c 0.31726,7.95666 -0.18473,14.40434 1.96858,22.72821 57.79911,2.70417 115.2188,1.44008 172.99518,0.1389 0.92727,-8.05732 1.127,-15.64651 1.69536,-24.06271 l -2.09244,-89.07684 c -2.63001,-21.63878 -3.98434,-44.99036 -3.28803,-69.0495 1.70751,-23.59677 3.09741,-40.49433 10.76094,-57.98963 -17.29494,-11.91909 -31.18851,-11.26113 -51.69983,-21.63486 -2.06968,6.56569 -11.34674,40.70836 -41.83336,40.27959 -30.01103,0.3085 -39.18079,-32.25766 -41.83336,-40.27953 -7.97471,4.2462 -16.82897,6.71703 -25.35165,9.65375 -5.52695,1.91169 -11.10963,3.92247 -15.85535,5.95398 -4.74571,2.03149 -8.65446,4.0837 -10.83358,6.07824 7.30645,15.56566 10.0864,37.88095 10.4491,62.42218 z"
       id="panel"
       sodipodi:nodetypes="ccccccccccccssccc" /></g><style
     type="text/css"
     id="style1">
	.st0{fill:#000000;}
</style><style
     type="text/css"
     id="style1-7">
	.st0{fill:#000000;}
</style></svg>
