<?xml version="1.0" encoding="UTF-8" standalone="no"?>
<!-- Created with Inkscape (http://www.inkscape.org/) -->

<svg
   version="1.1"
   id="svg1"
   width="100cm"
   height="100cm"
   viewBox="0 0 1000 1000"
   sodipodi:docname="Raglan_sleeve_preview.svg"
   inkscape:version="1.4.2 (f4327f4, 2025-05-13)"
   inkscape:export-filename="ГОТОВЫЕ МАКЕТЫ\ГОРЛОВИНА ЗАДНЯЯ ИЗ РИБАНЫ.svg"
   inkscape:export-xdpi="96"
   inkscape:export-ydpi="96"
   xml:space="preserve"
   xmlns:inkscape="http://www.inkscape.org/namespaces/inkscape"
   xmlns:sodipodi="http://sodipodi.sourceforge.net/DTD/sodipodi-0.dtd"
   xmlns="http://www.w3.org/2000/svg"
   xmlns:svg="http://www.w3.org/2000/svg"><sodipodi:namedview
     id="namedview1"
     pagecolor="#ffffff"
     bordercolor="#000000"
     borderopacity="0.25"
     inkscape:showpageshadow="2"
     inkscape:pageopacity="0.0"
     inkscape:pagecheckerboard="false"
     inkscape:deskcolor="#d1d1d1"
     inkscape:zoom="0.25"
     inkscape:cx="1384"
     inkscape:cy="1826"
     inkscape:window-width="2560"
     inkscape:window-height="1369"
     inkscape:window-x="-8"
     inkscape:window-y="-8"
     inkscape:window-maximized="1"
     inkscape:current-layer="layer15"
     inkscape:document-units="cm"
     showgrid="true"
     showguides="false"
     inkscape:lockguides="false"><inkscape:page
       x="0"
       y="0"
       width="1000"
       height="1000"
       id="page2"
       margin="0"
       bleed="0" /><inkscape:grid
       id="grid31"
       units="cm"
       originx="140"
       originy="0"
       spacingx="2"
       spacingy="9.9999999"
       empcolor="#0099e5"
       empopacity="0.30196078"
       color="#0099e5"
       opacity="0.14902"
       empspacing="5"
       enabled="false"
       visible="true" /><inkscape:grid
       id="grid32"
       units="mm"
       originx="0"
       originy="0"
       spacingx="0"
       spacingy="0"
       empcolor="#0099e5"
       empopacity="0.30196078"
       color="#0099e5"
       opacity="0.14902"
       empspacing="5"
       enabled="true"
       visible="true" /></sodipodi:namedview><defs
     id="defs1" /><g
     inkscape:groupmode="layer"
     id="layer15"
     inkscape:label="РУКАВ РЕГЛАН"
     style="display:inline"><path
       d="M 253.63609,139.38028 C 195.59525,183.96444 61.205329,627.23541 72.069604,909.41223 c 1.118522,15.96304 3.15238,28.26465 6.101611,36.9049 L 205.25978,953.425 c 6.55177,-17.85535 11.49373,-38.43721 15.70978,-59.23308 10.091,-47.89223 27.09252,-211.18821 55.9256,-339.4416 5.39457,-39.25906 13.42959,-96.20373 11.03529,-168.62521 C 287.03319,358.9856 334.23708,203.32808 424.17705,149.43536 412.90777,127.146 401.04125,105.00926 395.53964,81.246345 347.79299,100.22813 291.66692,111.75751 253.63609,139.38028 Z"
       style="display:inline;fill:#ffffff;stroke:#000000;stroke-width:2.06655;stroke-opacity:1"
       id="path1-2-7"
       sodipodi:nodetypes="ccccccsccc"
       inkscape:label="правый рукав" /><path
       d="m 745.95108,134.58791 c 58.25111,44.74567 193.3842,489.67488 182.48056,772.8739 -1.12256,16.02086 -3.16381,28.36708 -6.12371,37.03863 L 794.759,951.63405 C 788.18349,933.71402 781.87326,912.37801 777.64195,891.50681 767.5144,843.44106 750.19492,679.50109 721.25738,550.7831 716.0465,511.38471 711.98809,455.37799 709.39548,382.62356 708.42496,355.38814 665.77256,199.31343 575.50679,145.22547 c 11.3101,-22.37011 22.50516,-45.13306 28.02669,-68.982059 49.56013,17.608871 104.58718,30.324529 142.4176,58.344499 z"
       style="display:inline;fill:#ffffff;stroke:#000000;stroke-width:2.07404;stroke-opacity:1"
       id="path1-2-7-3"
       sodipodi:nodetypes="ccccccsccc"
       inkscape:label="левый рукав" /></g><style
     type="text/css"
     id="style1">
	.st0{fill:#000000;}
</style><style
     type="text/css"
     id="style1-7">
	.st0{fill:#000000;}
</style></svg>
