<?xml version="1.0" encoding="UTF-8" standalone="no"?>
<!-- Created with Inkscape (http://www.inkscape.org/) -->

<svg
   version="1.1"
   id="svg1"
   width="100cm"
   height="100cm"
   viewBox="0 0 1000 1000"
   sodipodi:docname="neck_ribbed_preview.svg"
   inkscape:version="1.4.2 (f4327f4, 2025-05-13)"
   inkscape:export-filename="ГОТОВЫЕ МАКЕТЫ\КАПЮШОН.svg"
   inkscape:export-xdpi="96"
   inkscape:export-ydpi="96"
   xml:space="preserve"
   xmlns:inkscape="http://www.inkscape.org/namespaces/inkscape"
   xmlns:sodipodi="http://sodipodi.sourceforge.net/DTD/sodipodi-0.dtd"
   xmlns="http://www.w3.org/2000/svg"
   xmlns:svg="http://www.w3.org/2000/svg"><sodipodi:namedview
     id="namedview1"
     pagecolor="#ffffff"
     bordercolor="#000000"
     borderopacity="0.25"
     inkscape:showpageshadow="2"
     inkscape:pageopacity="0.0"
     inkscape:pagecheckerboard="false"
     inkscape:deskcolor="#d1d1d1"
     inkscape:zoom="0.25"
     inkscape:cx="2008"
     inkscape:cy="2038"
     inkscape:window-width="2560"
     inkscape:window-height="1369"
     inkscape:window-x="-8"
     inkscape:window-y="-8"
     inkscape:window-maximized="1"
     inkscape:current-layer="svg1"
     inkscape:document-units="cm"
     showgrid="true"
     showguides="false"
     inkscape:lockguides="false"><inkscape:page
       x="0"
       y="0"
       width="1000"
       height="1000"
       id="page2"
       margin="0"
       bleed="0" /><inkscape:grid
       id="grid31"
       units="cm"
       originx="140"
       originy="0"
       spacingx="2"
       spacingy="9.9999999"
       empcolor="#0099e5"
       empopacity="0.30196078"
       color="#0099e5"
       opacity="0.14902"
       empspacing="5"
       enabled="false"
       visible="true" /><inkscape:grid
       id="grid32"
       units="mm"
       originx="0"
       originy="0"
       spacingx="0"
       spacingy="0"
       empcolor="#0099e5"
       empopacity="0.30196078"
       color="#0099e5"
       opacity="0.14902"
       empspacing="5"
       enabled="true"
       visible="true" /></sodipodi:namedview><defs
     id="defs1"><inkscape:path-effect
       effect="mirror_symmetry"
       start_point="540.39419,260.66626"
       end_point="540.39419,310.1642"
       center_point="540.39419,285.41523"
       id="path-effect19"
       is_visible="true"
       lpeversion="1.2"
       lpesatellites=""
       mode="free"
       discard_orig_path="false"
       fuse_paths="false"
       oposite_fuse="false"
       split_items="false"
       split_open="false"
       link_styles="false" /><inkscape:path-effect
       effect="envelope"
       id="path-effect911"
       is_visible="true"
       lpeversion="1"
       yy="true"
       xx="false"
       bendpath1="m 498.50451,260.62062 c 13.48294,52.98449 68.83133,55.37254 83.86907,0"
       bendpath2="m 582.37358,260.62062 v 9.21467"
       bendpath3="m 490.20971,264.40829 c 16.04351,61.09181 84.02844,61.90556 100.21448,-0.10919"
       bendpath4="m 498.50451,260.62062 v 9.21467"
       bendpath3-nodetypes="cc"
       bendpath1-nodetypes="cc" /></defs><g
     inkscape:groupmode="layer"
     id="layer3"
     inkscape:label="ГОРЛОВИНА"
     style="display:inline"><path
       style="display:inline;fill:none;stroke:#000000;stroke-width:5.17674"
       d="m 833.32122,300.9925 c -131.37878,145.97111 -566.57031,130.96252 -680.73912,-4.7e-4 15.58861,53.52875 34.98445,101.12069 58.18778,142.7758 169.60929,68.78933 355.96346,68.53961 564.55353,-0.2498 24.41345,-46.11242 46.05003,-92.85036 57.99781,-142.52561 z"
       id="path2"
       sodipodi:nodetypes="ccccc" /><path
       d="m 540.39419,300.90027 c -25.19199,0 -36.07943,-21.62342 -41.83336,-40.27959 -2.8984,1.50872 -5.68211,2.77128 -8.35112,3.78767 8.22986,28.59309 24.4304,45.44613 50.18448,45.81771 m 0,-9.32579 c 25.19199,0 36.07943,-21.62342 41.83336,-40.27959 2.8984,1.50872 5.68211,2.77128 8.35112,3.78767 -8.22986,28.59309 -24.4304,45.44613 -50.18448,45.81771"
       style="display:inline;fill:none;stroke:#000000;stroke-width:0.636252;stroke-opacity:1"
       id="path1-6"
       inkscape:path-effect="#path-effect19"
       inkscape:original-d="m 540.39419,300.90027 c -25.19199,0 -36.07943,-21.62342 -41.83336,-40.27959 -2.8984,1.50872 -5.68211,2.77128 -8.35112,3.78767 8.22986,28.59309 24.4304,45.44613 50.18448,45.81771"
       sodipodi:nodetypes="cccc"
       transform="matrix(8.1363191,0,0,8.1363191,-3903.868,-1819.5005)" /></g><g
     inkscape:groupmode="layer"
     id="layer13"
     inkscape:label="ГОРЛОВИНА ИЗ РИБАНЫ"
     style="display:inline"><path
       id="use904"
       style="display:inline;fill:none;stroke:#000000;stroke-width:0.200499;stroke-opacity:1"
       d="m 581.9482,261.23191 c 2.66805,1.29358 5.34264,2.56222 8.02377,3.80594 m -8.53307,-2.0599 c 2.64737,1.38209 5.29806,2.74954 7.95209,4.10237 m -8.49846,-2.36435 c 2.62248,1.46991 5.24487,2.93499 7.86718,4.39523 m -8.45148,-2.66753 c 2.59346,1.55686 5.18321,3.11819 7.76927,4.68399 m -8.39234,-2.96888 c 2.56035,1.64278 5.1132,3.29883 7.65854,4.96814 m -8.32124,-3.26792 c 2.52325,1.72749 5.03498,3.47654 7.5352,5.24714 m -8.23839,-3.56408 c 2.48221,1.81081 4.9487,3.65096 7.39946,5.52047 m -8.144,-3.85684 c 2.43731,1.89256 4.85448,3.82177 7.25152,5.78762 m -8.03825,-4.14573 c 2.3886,1.97258 4.75246,3.98859 7.09159,6.04805 m -7.92136,-4.43016 c 2.33616,2.05068 4.64277,4.15109 6.91985,6.30123 m -7.79355,-4.70963 c 2.28006,2.1267 4.52557,4.30892 6.73654,6.54666 m -7.65499,-4.98364 c 2.22037,2.20045 4.40098,4.46172 6.54185,6.78379 m -7.50592,-5.25162 c 2.15714,2.27178 4.26913,4.60915 6.33598,7.01212 m -7.34652,-5.5131 c 2.09046,2.34049 4.13017,4.75086 6.11914,7.23112 m -7.177,-5.76752 c 2.02038,2.40642 3.98422,4.8865 5.89152,7.44025 m -6.99758,-6.01434 c 1.94699,2.46938 3.83144,5.01571 5.65335,7.639 m -6.80843,-6.25309 c 1.87034,2.52921 3.67195,5.13816 5.40482,7.82684 m -6.60981,-6.48319 c 1.79051,2.58573 3.50589,5.25349 5.14614,8.00326 m -6.40186,-6.70418 c 1.70755,2.63878 3.33339,5.36135 4.8775,8.16772 m -6.18507,-6.91544 c 1.62452,2.68789 3.15771,5.46104 4.59958,8.31945 m -5.96031,-7.11896 c 1.53739,2.73887 2.97515,5.55738 4.31327,8.45552 m -5.72796,-7.31588 c 1.44251,2.78797 2.78319,5.6477 4.02205,8.5792 m -5.48788,-7.50374 c 1.34506,2.83271 2.58749,5.72969 3.72729,8.69093 m -5.24074,-7.6828 c 1.24514,2.87326 2.38825,5.80364 3.42932,8.79116 m -4.98692,-7.85348 c 1.14289,2.90975 2.18572,5.86985 3.1285,8.88031 m -4.72676,-8.0162 c 1.0384,2.94233 1.98011,5.92861 2.82513,8.95884 m -4.46053,-8.17144 c 0.93178,2.97114 1.77164,5.9802 2.51956,9.02717 m -4.18863,-8.3196 c 0.82317,2.99634 1.56054,6.02492 2.21214,9.08574 m -3.91139,-8.46113 c 0.71265,3.01806 1.34704,6.06306 1.90318,9.135 m -3.62909,-8.59649 c 0.60033,3.03647 1.13135,6.09493 1.59303,9.17539 m -3.34215,-8.72609 c 0.48636,3.05169 0.9137,6.12081 1.28203,9.20733 m -3.05082,-8.85039 c 0.37082,3.0639 0.69432,6.14099 0.9705,9.23129 m -2.7555,-8.96981 c 0.25382,3.0732 0.47342,6.15576 0.65879,9.24767 m -2.45649,-9.0848 c 0.1355,3.07977 0.25124,6.16542 0.34723,9.25694 m -2.15413,-9.19581 c 0.0159,3.08375 0.028,6.17026 0.0361,9.25954 m -1.84647,-9.3026 c -0.10436,3.08373 -0.1954,6.16901 -0.27312,9.25585 m -1.52819,-9.40102 c -0.2232,3.07522 -0.41754,6.15695 -0.58301,9.2452 m -1.2051,-9.4897 c -0.34088,3.06445 -0.63884,6.14047 -0.89389,9.22806 m -0.87783,-9.56865 c -0.45721,3.05125 -0.85897,6.11922 -1.20527,9.20392 m -0.5468,-9.63735 c -0.57205,3.03545 -1.07761,6.09289 -1.51668,9.17231 m -0.21254,-9.69534 c -0.68524,3.0169 -1.29446,6.06114 -1.82764,9.13271 m 0.12453,-9.74208 c -0.79663,2.99542 -1.50919,6.02363 -2.13769,9.08462 m 0.4639,-9.7771 c -0.90605,2.97085 -1.72149,5.98004 -2.44635,9.02756 m 0.80508,-9.7999 c -1.01333,2.94302 -1.93104,5.93003 -2.75312,8.96102 m 1.14763,-9.80996 c -1.11833,2.91177 -2.13752,5.87327 -3.05755,8.8845 m 1.49105,-9.80681 c -1.22089,2.87692 -2.3406,5.80943 -3.35914,8.79751 m 1.83485,-9.78995 c -1.32085,2.83833 -2.54,5.73817 -3.65745,8.69954 m 2.17862,-9.75884 c -1.41804,2.79581 -2.73537,5.65917 -3.95197,8.5901 m 2.52179,-9.71303 c -1.51232,2.74919 -2.9264,5.57209 -4.24224,8.46869 m 2.86397,-9.65199 c -1.60352,2.69832 -3.11278,5.47659 -4.52779,8.33481 m 3.20374,-9.57445 c -1.68973,2.64658 -3.29216,5.37599 -4.80729,8.18823 m 3.53591,-9.47626 c -1.77419,2.59343 -3.46708,5.26988 -5.07869,8.02936 m 3.85891,-9.36266 c -1.85595,2.53678 -3.63641,5.15638 -5.34141,7.85882 m 4.1725,-9.23513 c -1.93494,2.47678 -3.80004,5.03581 -5.59529,7.67708 m 4.47654,-9.09416 c -2.01113,2.41361 -3.95786,4.9085 -5.8402,7.48466 m 4.77093,-8.94025 c -2.08445,2.34745 -4.10977,4.77482 -6.07597,7.28209 m 5.05546,-8.77393 c -2.15487,2.27846 -4.25568,4.63508 -6.30245,7.06986 m 5.32999,-8.59573 c -2.22232,2.20682 -4.39548,4.48965 -6.51949,6.84849 m 5.59439,-8.40609 c -2.28675,2.13268 -4.52906,4.33884 -6.72694,6.61848 m 5.84849,-8.20558 c -2.34812,2.05623 -4.65634,4.18301 -6.92464,6.38034 m 6.09213,-7.9947 c -2.40639,1.97762 -4.7772,4.02248 -7.11245,6.13459 m 6.32519,-7.77393 c -2.46148,1.89704 -4.89155,3.85762 -7.29021,5.88172 m 6.54747,-7.54381 c -2.51336,1.81465 -4.99927,3.68873 -7.45775,5.62226 m 6.75885,-7.30482 c -2.56196,1.73061 -5.10028,3.51618 -7.61495,5.3567 m 6.95918,-7.0575 c -2.60726,1.64511 -5.19447,3.3403 -7.76164,5.08557 m 7.14828,-6.80236 c -2.64918,1.55831 -5.28173,3.16143 -7.89766,4.80936 m 7.32603,-6.53986 c -2.68768,1.47037 -5.36198,2.9799 -8.02288,4.52859 m 7.49225,-6.27056 c -2.72271,1.38147 -5.43508,2.79606 -8.13711,4.24376 m 7.64679,-5.99496 c -2.75422,1.29178 -5.50096,2.61024 -8.24024,3.95537 m 7.78953,-5.71353 c -2.78215,1.20147 -5.55952,2.42279 -8.33209,3.66397 m 8.33209,-3.66397 c -2.78215,1.20147 -5.55952,2.42279 -8.33209,3.66397"
       inkscape:path-effect="#path-effect911"
       inkscape:original-d="m 582.37358,260.62062 v 9.21467 m -1.21549,-9.21467 v 9.21467 m -1.2155,-9.21467 v 9.21467 m -1.21549,-9.21467 v 9.21467 m -1.2155,-9.21467 v 9.21467 m -1.21549,-9.21467 v 9.21467 m -1.21549,-9.21467 v 9.21467 m -1.2155,-9.21467 v 9.21467 m -1.21549,-9.21467 v 9.21467 m -1.21549,-9.21467 v 9.21467 m -1.2155,-9.21467 v 9.21467 m -1.21549,-9.21467 v 9.21467 m -1.2155,-9.21467 v 9.21467 m -1.21549,-9.21467 v 9.21467 m -1.21549,-9.21467 v 9.21467 m -1.2155,-9.21467 v 9.21467 m -1.21549,-9.21467 v 9.21467 m -1.2155,-9.21467 v 9.21467 m -1.21549,-9.21467 v 9.21467 m -1.21549,-9.21467 v 9.21467 m -1.2155,-9.21467 v 9.21467 m -1.21549,-9.21467 v 9.21467 m -1.2155,-9.21467 v 9.21467 m -1.21549,-9.21467 v 9.21467 m -1.21549,-9.21467 v 9.21467 m -1.2155,-9.21467 v 9.21467 m -1.21549,-9.21467 v 9.21467 m -1.21549,-9.21467 v 9.21467 m -1.2155,-9.21467 v 9.21467 m -1.21549,-9.21467 v 9.21467 m -1.2155,-9.21467 v 9.21467 m -1.21549,-9.21467 v 9.21467 m -1.2155,-9.21467 v 9.21467 m -1.21549,-9.21467 v 9.21467 m -1.21549,-9.21467 v 9.21467 m -1.2155,-9.21467 v 9.21467 m -1.21549,-9.21467 v 9.21467 m -1.21549,-9.21467 v 9.21467 m -1.2155,-9.21467 v 9.21467 m -1.21549,-9.21467 v 9.21467 m -1.2155,-9.21467 v 9.21467 m -1.21549,-9.21467 v 9.21467 m -1.21549,-9.21467 v 9.21467 m -1.2155,-9.21467 v 9.21467 m -1.21549,-9.21467 v 9.21467 m -1.21549,-9.21467 v 9.21467 m -1.2155,-9.21467 v 9.21467 m -1.21549,-9.21467 v 9.21467 m -1.2155,-9.21467 v 9.21467 m -1.21549,-9.21467 v 9.21467 m -1.21549,-9.21467 v 9.21467 m -1.2155,-9.21467 v 9.21467 m -1.21549,-9.21467 v 9.21467 m -1.21549,-9.21467 v 9.21467 m -1.2155,-9.21467 v 9.21467 m -1.21549,-9.21467 v 9.21467 m -1.21549,-9.21467 v 9.21467 m -1.2155,-9.21467 v 9.21467 m -1.21549,-9.21467 v 9.21467 m -1.21549,-9.21467 v 9.21467 m -1.2155,-9.21467 v 9.21467 m -1.21549,-9.21467 v 9.21467 m -1.2155,-9.21467 v 9.21467 m -1.21549,-9.21467 v 9.21467 m -1.21549,-9.21467 v 9.21467 m -1.2155,-9.21467 v 9.21467 m -1.21549,-9.21467 v 9.21467 m -1.21549,-9.21467 v 9.21467 m -1.2155,-9.21467 v 9.21467 m -1.21549,-9.21467 v 9.21467 m 0,-9.21467 v 9.21467"
       transform="matrix(8.1374606,0,0,7.9706508,-3904.5412,-1768.1328)" /></g><style
     type="text/css"
     id="style1">
	.st0{fill:#000000;}
</style><style
     type="text/css"
     id="style1-7">
	.st0{fill:#000000;}
</style></svg>
