<?xml version="1.0" encoding="UTF-8" standalone="no"?>
<!-- Created with Inkscape (http://www.inkscape.org/) -->

<svg
   version="1.1"
   id="svg1"
   width="100cm"
   height="100cm"
   viewBox="0 0 1000 1000"
   sodipodi:docname="belt_ribbed.svg"
   inkscape:version="1.4.2 (f4327f4, 2025-05-13)"
   inkscape:export-filename="ГОТОВЫЕ МАКЕТЫ\ЛЕВАЯ МАНЖЕТА ИЗ РИБАНЫ.svg"
   inkscape:export-xdpi="96"
   inkscape:export-ydpi="96"
   xml:space="preserve"
   xmlns:inkscape="http://www.inkscape.org/namespaces/inkscape"
   xmlns:sodipodi="http://sodipodi.sourceforge.net/DTD/sodipodi-0.dtd"
   xmlns="http://www.w3.org/2000/svg"
   xmlns:svg="http://www.w3.org/2000/svg"><sodipodi:namedview
     id="namedview1"
     pagecolor="#ffffff"
     bordercolor="#000000"
     borderopacity="0.25"
     inkscape:showpageshadow="2"
     inkscape:pageopacity="0.0"
     inkscape:pagecheckerboard="false"
     inkscape:deskcolor="#d1d1d1"
     inkscape:zoom="1.4142136"
     inkscape:cx="2090.9148"
     inkscape:cy="2129.4521"
     inkscape:window-width="2560"
     inkscape:window-height="1369"
     inkscape:window-x="-8"
     inkscape:window-y="-8"
     inkscape:window-maximized="1"
     inkscape:current-layer="layer12"
     inkscape:document-units="cm"
     showgrid="true"
     showguides="false"
     inkscape:lockguides="false"><inkscape:page
       x="0"
       y="0"
       width="1000"
       height="1000"
       id="page2"
       margin="0"
       bleed="0" /><inkscape:grid
       id="grid31"
       units="cm"
       originx="140"
       originy="0"
       spacingx="2"
       spacingy="9.9999999"
       empcolor="#0099e5"
       empopacity="0.30196078"
       color="#0099e5"
       opacity="0.14902"
       empspacing="5"
       enabled="false"
       visible="true" /><inkscape:grid
       id="grid32"
       units="mm"
       originx="0"
       originy="0"
       spacingx="0"
       spacingy="0"
       empcolor="#0099e5"
       empopacity="0.30196078"
       color="#0099e5"
       opacity="0.14902"
       empspacing="5"
       enabled="true"
       visible="true" /></sodipodi:namedview><defs
     id="defs1"><inkscape:path-effect
       effect="lattice2"
       gridpoint0="453.89,522.44888"
       gridpoint1="626.84845,522.44888"
       gridpoint2="456.22689,547.84193"
       gridpoint3="624.51155,547.84193"
       gridpoint4="498.29806,523.01654"
       gridpoint5="582.44039,523.01654"
       gridpoint6="498.33741,549.34896"
       gridpoint7="582.4407,548.40386"
       gridpoint8x9="540.36922,524.58955"
       gridpoint10x11="540.36996,548.95555"
       gridpoint12="456.94005,529.24746"
       gridpoint13="623.79839,529.24746"
       gridpoint14="456.22689,541.63558"
       gridpoint15="624.51155,541.63558"
       gridpoint16="498.29806,529.22289"
       gridpoint17="582.44039,529.22289"
       gridpoint18="498.29806,541.63558"
       gridpoint19="582.44039,541.63558"
       gridpoint20x21="540.36922,529.22289"
       gridpoint22x23="540.36922,541.63558"
       gridpoint24x26="456.22689,535.42924"
       gridpoint25x27="624.51155,535.42924"
       gridpoint28x30="498.29806,535.42924"
       gridpoint29x31="582.44039,535.42924"
       gridpoint32x33x34x35="540.36922,535.42924"
       id="path-effect7"
       is_visible="true"
       lpeversion="1"
       horizontal_mirror="false"
       vertical_mirror="false"
       perimetral="false"
       live_update="true" /></defs><g
     inkscape:groupmode="layer"
     id="layer8"
     inkscape:label="МАНЖЕТЫ ИЗ РИБАНЫ"
     style="display:inline"><g
       inkscape:groupmode="layer"
       id="layer12"
       inkscape:label="НИЖНЯЯ МАНЖЕТА ИЗ РИБАНЫ"
       style="display:inline"><path
         d="m 626.85155,522.43416 c -57.77638,1.30124 -115.19607,2.56533 -172.99518,-0.1389 1.688,7.26471 2.08293,16.62335 2.17247,25.88936 54.76594,2.0778 110.92686,1.96359 168.48271,-0.34269 0.72278,-8.34528 0.10995,-13.79682 2.34,-25.40783 z"
         style="display:inline;fill:none;stroke:#000000;stroke-width:0.636252;stroke-opacity:1"
         id="panel"
         sodipodi:nodetypes="ccccc" /><path
         id="use2642"
         style="display:inline;fill:none;stroke:#000000;stroke-width:0.263152"
         d="m 624.51155,547.84193 c 0.38956,-4.23302 0.60232,-10.56848 1.04275,-15.85689 0.43988,-5.28182 1.29415,-9.53616 1.29415,-9.53616 m -4.0367,25.41769 c 0.38169,-4.23671 0.59014,-10.5777 1.02166,-15.87072 0.43101,-5.28662 1.268,-9.54445 1.268,-9.54445 m -3.98944,25.44351 c 0.37381,-4.24021 0.57794,-10.58645 1.00056,-15.88384 0.42213,-5.29118 1.24183,-9.55233 1.24183,-9.55233 m -3.94215,25.46799 c 0.36592,-4.24354 0.56573,-10.59476 0.97943,-15.89631 0.41323,-5.29551 1.21565,-9.55981 1.21565,-9.55981 m -3.8948,25.49117 c 0.35803,-4.24669 0.55352,-10.60265 0.95829,-15.90815 0.40433,-5.29964 1.18946,-9.56692 1.18946,-9.56692 m -3.84743,25.51314 c 0.35013,-4.2497 0.54128,-10.61017 0.93713,-15.91942 0.39542,-5.30356 1.16325,-9.57367 1.16325,-9.57367 m -3.80005,25.53394 c 0.34223,-4.25256 0.52904,-10.61731 0.91595,-15.93014 0.38651,-5.3073 1.13704,-9.5801 1.13704,-9.5801 m -3.75262,25.55365 c 0.33433,-4.25528 0.51678,-10.62411 0.89475,-15.94034 0.37759,-5.31087 1.11082,-9.58623 1.11082,-9.58623 m -3.70517,25.57234 c 0.32642,-4.25788 0.50451,-10.6306 0.87354,-15.95007 0.36866,-5.31428 1.08458,-9.59207 1.08458,-9.59207 m -3.65772,25.59005 c 0.3185,-4.26035 0.49224,-10.6368 0.85231,-15.95936 0.35973,-5.31754 1.05834,-9.59765 1.05834,-9.59765 m -3.61022,25.60686 c 0.31059,-4.26273 0.47996,-10.64272 0.83107,-15.96825 0.35079,-5.32065 1.03209,-9.60298 1.03209,-9.60298 m -3.56269,25.62281 c 0.30267,-4.26499 0.46766,-10.64839 0.80981,-15.97676 0.34185,-5.32363 1.00583,-9.60807 1.00583,-9.60807 m -3.51515,25.63795 c 0.29475,-4.26717 0.45536,-10.65384 0.78854,-15.98492 0.3329,-5.32649 0.97956,-9.61297 0.97956,-9.61297 m -3.46759,25.65235 c 0.28681,-4.26926 0.44303,-10.65906 0.76725,-15.99276 0.32394,-5.32924 0.95328,-9.61767 0.95328,-9.61767 m -3.42,25.66605 c 0.27888,-4.27128 0.43071,-10.66409 0.74595,-16.00031 0.31499,-5.3319 0.927,-9.6222 0.927,-9.6222 m -3.37241,25.6791 c 0.27095,-4.27322 0.41838,-10.66895 0.72464,-16.00759 0.30602,-5.33446 0.90071,-9.62658 0.90071,-9.62658 m -3.32478,25.69156 c 0.26301,-4.2751 0.40604,-10.67365 0.70332,-16.01464 0.29705,-5.33695 0.87441,-9.63081 0.87441,-9.63081 m -3.27716,25.70345 c 0.25507,-4.27692 0.3937,-10.6782 0.682,-16.02147 0.28807,-5.33935 0.8481,-9.63491 0.8481,-9.63491 m -3.2295,25.71484 c 0.24713,-4.2787 0.38135,-10.68264 0.66066,-16.02812 0.2791,-5.34168 0.82179,-9.6389 0.82179,-9.6389 m -3.18183,25.72575 c 0.23918,-4.28042 0.36899,-10.68695 0.6393,-16.03459 0.27012,-5.34396 0.79548,-9.64278 0.79548,-9.64278 m -3.13416,25.73623 c 0.23123,-4.28211 0.35663,-10.69117 0.61794,-16.04092 0.26114,-5.34618 0.76916,-9.64658 0.76916,-9.64658 m -3.08647,25.74632 c 0.22328,-4.28376 0.34426,-10.6953 0.59658,-16.04712 0.25215,-5.34836 0.74283,-9.6503 0.74283,-9.6503 m -3.03876,25.75606 c 0.21533,-4.28539 0.33189,-10.69937 0.5752,-16.05322 0.24317,-5.35049 0.71651,-9.65395 0.71651,-9.65395 m -2.99105,25.76547 c 0.20738,-4.28699 0.31951,-10.70337 0.55383,-16.05922 0.23417,-5.3526 0.69017,-9.65755 0.69017,-9.65755 m -2.94334,25.77459 c 0.19942,-4.28857 0.30713,-10.70732 0.53244,-16.06514 0.22518,-5.35467 0.66384,-9.66111 0.66384,-9.66111 m -2.89561,25.78345 c 0.19147,-4.29013 0.29475,-10.71123 0.51105,-16.07101 0.21618,-5.35672 0.6375,-9.66463 0.6375,-9.66463 m -2.84786,25.79209 c 0.18351,-4.29169 0.28236,-10.71511 0.48966,-16.07683 0.20718,-5.35875 0.61115,-9.66812 0.61115,-9.66812 m -2.80014,25.80051 c 0.17555,-4.29323 0.26997,-10.71896 0.46826,-16.08261 0.19818,-5.36077 0.58481,-9.67159 0.58481,-9.67159 m -2.75237,25.80876 c 0.16759,-4.29477 0.25758,-10.72281 0.44686,-16.08838 0.18918,-5.36278 0.55846,-9.67506 0.55846,-9.67506 m -2.70462,25.81686 c 0.15963,-4.2963 0.24519,-10.72664 0.42545,-16.09413 0.18018,-5.36478 0.53212,-9.67851 0.53212,-9.67851 M 573.527,549.3534 c 0.15166,-4.29784 0.23279,-10.73048 0.40404,-16.09989 0.17118,-5.36677 0.50577,-9.68196 0.50577,-9.68196 m -2.60911,25.83267 c 0.1437,-4.29938 0.22039,-10.73433 0.38263,-16.10566 0.16217,-5.36876 0.47942,-9.68541 0.47942,-9.68541 m -2.56135,25.84042 c 0.13575,-4.30092 0.208,-10.73818 0.36123,-16.11143 0.15316,-5.37076 0.45307,-9.68889 0.45307,-9.68889 m -2.5136,25.8481 c 0.12778,-4.30246 0.1956,-10.74205 0.33982,-16.11723 0.14416,-5.37275 0.42672,-9.69237 0.42672,-9.69237 m -2.46584,25.85571 c 0.11982,-4.30402 0.1832,-10.74593 0.31841,-16.12306 0.13515,-5.37475 0.40037,-9.69586 0.40037,-9.69586 m -2.41808,25.86326 c 0.11186,-4.30558 0.17081,-10.74983 0.29701,-16.12891 0.12615,-5.37676 0.37402,-9.69937 0.37402,-9.69937 m -2.37032,25.87077 c 0.1039,-4.30715 0.15841,-10.75375 0.2756,-16.1348 0.11714,-5.37877 0.34767,-9.7029 0.34767,-9.7029 m -2.32258,25.87825 c 0.0959,-4.30873 0.14603,-10.7577 0.25421,-16.14072 0.10813,-5.38079 0.32133,-9.70645 0.32133,-9.70645 m -2.27485,25.8857 c 0.0951,-4.66058 0.13767,-11.4861 0.2328,-16.14668 0.0991,-5.38282 0.29499,-9.71002 0.29499,-9.71002 m -2.22712,25.89312 c 0.0865,-4.66228 0.12488,-11.49037 0.21141,-16.15265 0.0901,-5.38486 0.26864,-9.71362 0.26864,-9.71362 m -2.17937,25.90053 c 0.0779,-4.664 0.1121,-11.49468 0.19002,-16.15868 0.0811,-5.3869 0.24231,-9.71722 0.24231,-9.71722 m -2.13165,25.90792 c 0.0693,-4.66572 0.0993,-11.49901 0.16864,-16.16472 0.0721,-5.38895 0.21597,-9.72086 0.21597,-9.72086 m -2.08397,25.91529 c 0.0607,-4.66742 0.0865,-11.50336 0.14725,-16.17079 0.0631,-5.391 0.18963,-9.72449 0.18963,-9.72449 m -2.03623,25.92264 c 0.0521,-4.66914 0.0738,-11.50775 0.12588,-16.17688 0.0541,-5.39306 0.16331,-9.72815 0.16331,-9.72815 m -1.98855,25.92996 c 0.0435,-4.67083 0.061,-11.51214 0.10451,-16.18297 0.0451,-5.39511 0.13699,-9.73181 0.13699,-9.73181 m -1.94089,25.93726 c 0.0349,-4.6725 0.0482,-11.51658 0.0832,-16.18908 0.0362,-5.39717 0.11066,-9.73547 0.11066,-9.73547 m -1.89319,25.94451 c 0.0263,-4.67412 0.0355,-11.52107 0.0618,-16.19518 0.0272,-5.39921 0.0843,-9.73913 0.0843,-9.73913 m -1.84554,25.95171 c 0.0328,-8.64975 0.0985,-25.94403 0.0985,-25.94403 m -1.79794,25.95885 c 0.017,-8.65298 0.0509,-25.95373 0.0509,-25.95373 m -1.75029,25.96592 c 0.001,-8.65619 0.003,-25.96335 0.003,-25.96335 m -1.70269,25.9729 c -0.0148,-8.65938 -0.0444,-25.9729 -0.0444,-25.9729 m -1.65511,25.97977 c -0.0307,-8.66252 -0.0919,-25.98234 -0.0919,-25.98234 m -1.60755,25.98652 c -0.0465,-8.66562 -0.13951,-25.99164 -0.13951,-25.99164 m -1.55998,25.99312 c -0.0337,-4.68738 -0.0536,-11.54936 -0.0874,-16.23674 -0.0357,-5.41306 -0.0997,-9.76406 -0.0997,-9.76406 m -1.51247,25.99955 c -0.0423,-4.68884 -0.0663,-11.55348 -0.10864,-16.24233 -0.0446,-5.41491 -0.12595,-9.76742 -0.12595,-9.76742 m -1.46497,26.00579 c -0.0509,-4.69033 -0.079,-11.55747 -0.12988,-16.2478 -0.0536,-5.41671 -0.15221,-9.7707 -0.15221,-9.7707 m -1.41747,26.01181 c -0.0594,-4.6918 -0.0917,-11.56131 -0.15112,-16.25311 -0.0626,-5.41845 -0.17846,-9.77388 -0.17846,-9.77388 m -1.37002,26.01758 c -0.068,-4.69323 -0.10438,-11.565 -0.17235,-16.25823 -0.0715,-5.42014 -0.20469,-9.77696 -0.20469,-9.77696 m -1.32259,26.02307 c -0.0765,-4.69461 -0.11703,-11.56855 -0.19355,-16.26316 -0.0804,-5.42175 -0.23093,-9.77992 -0.23093,-9.77992 m -1.27516,26.02826 c -0.0851,-4.69594 -0.12968,-11.57192 -0.21474,-16.26787 -0.0894,-5.42328 -0.25714,-9.78273 -0.25714,-9.78273 m -1.2278,26.0331 c -0.0936,-4.69721 -0.14231,-11.57512 -0.23591,-16.27232 -0.0983,-5.42473 -0.28336,-9.78541 -0.28336,-9.78541 m -1.18042,26.03756 c -0.10214,-4.69839 -0.15493,-11.57811 -0.25707,-16.2765 -0.10722,-5.42607 -0.30956,-9.78791 -0.30956,-9.78791 m -1.1331,26.04161 c -0.10234,-4.34597 -0.16202,-10.85081 -0.2782,-16.28037 -0.11614,-5.42733 -0.33574,-9.79024 -0.33574,-9.79024 m -1.08583,26.04521 c -0.11023,-4.34693 -0.17422,-10.85318 -0.29933,-16.28392 -0.12504,-5.42846 -0.36192,-9.79237 -0.36192,-9.79237 m -1.03853,26.04831 c -0.11811,-4.34777 -0.18642,-10.8553 -0.32043,-16.28711 -0.13395,-5.42946 -0.38809,-9.79427 -0.38809,-9.79427 m -0.99128,26.05086 c -0.12599,-4.34851 -0.1986,-10.85715 -0.34151,-16.28989 -0.14286,-5.43034 -0.41424,-9.79595 -0.41424,-9.79595 m -0.94412,26.05284 c -0.13385,-4.34915 -0.21076,-10.85873 -0.36257,-16.29226 -0.15174,-5.43106 -0.44039,-9.79737 -0.44039,-9.79737 m -0.89692,26.05419 c -0.14172,-4.34966 -0.22291,-10.86001 -0.38361,-16.29417 -0.16063,-5.43164 -0.46652,-9.79852 -0.46652,-9.79852 m -0.84978,26.05485 c -0.14958,-4.35003 -0.23505,-10.86095 -0.40464,-16.29559 -0.1695,-5.43204 -0.49263,-9.79936 -0.49263,-9.79936 m -0.8027,26.05479 c -0.15742,-4.35028 -0.24717,-10.86156 -0.42563,-16.29649 -0.17837,-5.43227 -0.51874,-9.7999 -0.51874,-9.7999 m -0.75561,26.05395 c -0.16527,-4.35036 -0.25929,-10.86177 -0.44661,-16.29682 -0.18723,-5.4323 -0.54483,-9.8001 -0.54483,-9.8001 m -0.70857,26.05228 c -0.17311,-4.35029 -0.27138,-10.8616 -0.46756,-16.29655 -0.19609,-5.43214 -0.57091,-9.79995 -0.57091,-9.79995 m -0.6616,26.04972 c -0.18094,-4.35005 -0.28345,-10.86099 -0.48849,-16.29565 -0.20493,-5.43175 -0.59697,-9.79939 -0.59697,-9.79939 m -0.61464,26.0462 c -0.18878,-4.34963 -0.29552,-10.85994 -0.5094,-16.29406 -0.21377,-5.43114 -0.62302,-9.79845 -0.62302,-9.79845 m -0.56772,26.04168 c -0.19659,-4.34901 -0.30756,-10.8584 -0.53028,-16.29175 -0.22259,-5.43028 -0.64905,-9.79707 -0.64905,-9.79707 m -0.52086,26.0361 c -0.20441,-4.34819 -0.31959,-10.85635 -0.55114,-16.28869 -0.23141,-5.42916 -0.67507,-9.79522 -0.67507,-9.79522 m -0.47401,26.02938 c -0.21221,-4.34716 -0.3316,-10.85377 -0.57197,-16.28482 -0.24022,-5.42778 -0.70107,-9.7929 -0.70107,-9.7929 m -0.42722,26.02147 c -0.22001,-4.3459 -0.34359,-10.85063 -0.59277,-16.2801 -0.24902,-5.4261 -0.72706,-9.79007 -0.72706,-9.79007 m -0.38048,26.0123 c -0.22781,-4.3444 -0.35557,-10.84689 -0.61355,-16.27449 -0.25781,-5.42412 -0.75303,-9.7867 -0.75303,-9.7867 m -0.33376,26.0018 c -0.2356,-4.34266 -0.36753,-10.84252 -0.6343,-16.26793 -0.2666,-5.42184 -0.77899,-9.78277 -0.77899,-9.78277 m -0.28711,25.98989 c -0.24337,-4.34064 -0.37947,-10.83748 -0.65502,-16.26038 -0.27537,-5.41921 -0.80493,-9.77824 -0.80493,-9.77824 m -0.24049,25.97651 c -0.25115,-4.33835 -0.39139,-10.83176 -0.67572,-16.2518 -0.28413,-5.41623 -0.83085,-9.77309 -0.83085,-9.77309 m -0.1939,25.96159 c -0.25891,-4.33577 -0.4033,-10.82531 -0.69639,-16.24213 -0.29288,-5.41288 -0.85675,-9.76728 -0.85675,-9.76728 m -0.14739,25.94504 c -0.26666,-4.33289 -0.41518,-10.8181 -0.71702,-16.23131 -0.30162,-5.40916 -0.88264,-9.7608 -0.88264,-9.7608 m -0.10094,25.92679 c -0.27441,-4.32969 -0.42703,-10.8101 -0.73762,-16.21931 -0.31035,-5.40502 -0.90851,-9.75359 -0.90851,-9.75359 m -0.0545,25.90676 c -0.28215,-4.32615 -0.43888,-10.80126 -0.7582,-16.20605 -0.31907,-5.40048 -0.93436,-9.74564 -0.93436,-9.74564 m -0.008,25.88487 c -0.28988,-4.32227 -0.45069,-10.79156 -0.77874,-16.1915 -0.32778,-5.39549 -0.96019,-9.73691 -0.96019,-9.73691 m 0.0382,25.86103 c -0.29761,-4.31802 -0.4625,-10.78095 -0.79926,-16.17559 -0.33647,-5.39004 -0.986,-9.72736 -0.986,-9.72736 m 0.0845,25.83517 c -0.30532,-4.3134 -0.47427,-10.7694 -0.81974,-16.15826 -0.34516,-5.38413 -1.01179,-9.71697 -1.01179,-9.71697 m 0.1307,25.80719 c -0.31302,-4.30839 -0.48603,-10.75688 -0.84018,-16.13947 -0.35384,-5.37772 -1.03757,-9.70569 -1.03757,-9.70569 m 0.17686,25.777 c -0.32072,-4.30297 -0.49777,-10.74332 -0.8606,-16.11914 -0.3625,-5.37079 -1.06332,-9.6935 -1.06332,-9.6935 m 0.22296,25.74452 c -0.3284,-4.29712 -0.50947,-10.7287 -0.88098,-16.09722 -0.37114,-5.36332 -1.08905,-9.68034 -1.08905,-9.68034 m 0.26904,25.70965 c -0.33608,-4.29084 -0.52116,-10.71299 -0.90133,-16.07365 -0.37978,-5.35531 -1.11476,-9.6662 -1.11476,-9.6662 m 0.31503,25.6723 c -0.34375,-4.28409 -0.53283,-10.69613 -0.92163,-16.04835 -0.38841,-5.34672 -1.14046,-9.65103 -1.14046,-9.65103 m 0.36099,25.63236 c -0.35141,-4.27687 -0.54447,-10.67807 -0.94191,-16.02128 -0.39702,-5.33752 -1.16613,-9.63478 -1.16613,-9.63478 m 0.40688,25.58975 c -0.35906,-4.26915 -0.55609,-10.6588 -0.96215,-15.99236 -0.40562,-5.32771 -1.19178,-9.61744 -1.19178,-9.61744 m 0.4527,25.54437 c -0.3667,-4.26093 -0.56768,-10.63824 -0.98236,-15.96153 -0.4142,-5.31726 -1.2174,-9.59894 -1.2174,-9.59894 m 0.49848,25.49611 c -0.37433,-4.25218 -0.57925,-10.61637 -1.00252,-15.92872 -0.42278,-5.30614 -1.24301,-9.57926 -1.24301,-9.57926 m 0.54418,25.44486 c -0.38195,-4.24288 -0.59079,-10.59313 -1.02265,-15.89386 -0.43134,-5.29434 -1.26859,-9.55834 -1.26859,-9.55834 m 0.58983,25.39053 c -0.38956,-4.23302 -0.60231,-10.56848 -1.04274,-15.85689 -0.43988,-5.28182 -1.29415,-9.53616 -1.29415,-9.53616 m 2.33689,25.39305 c -0.38956,-4.23302 -0.60231,-10.56848 -1.04274,-15.85689 -0.43988,-5.28182 -1.29415,-9.53616 -1.29415,-9.53616"
         sodipodi:nodetypes="cccccccccccccccccccccccccccccccccccccccccccccccccccccccccccccccccccccccccccccccccccccccccccccccccccccccccccccccccccccccccccccccccccccccccccccccccccccccccccccccccccccccccccccccccccccccccccccccccccccccccc"
         inkscape:original-d="m 624.51155,547.84193 v -24.82539 m -1.69983,24.82539 v -24.82539 m -1.69984,24.82539 v -24.82539 m -1.69986,24.82539 v -24.82539 m -1.69984,24.82539 v -24.82539 m -1.69984,24.82539 v -24.82539 m -1.69985,24.82539 v -24.82539 m -1.69984,24.82539 v -24.82539 m -1.69984,24.82539 v -24.82539 m -1.69986,24.82539 v -24.82539 m -1.69985,24.82539 v -24.82539 m -1.69984,24.82539 v -24.82539 m -1.69984,24.82539 v -24.82539 m -1.69985,24.82539 v -24.82539 m -1.69984,24.82539 v -24.82539 m -1.69985,24.82539 v -24.82539 m -1.69984,24.82539 v -24.82539 m -1.69985,24.82539 v -24.82539 m -1.69984,24.82539 v -24.82539 m -1.69984,24.82539 v -24.82539 m -1.69985,24.82539 v -24.82539 m -1.69985,24.82539 v -24.82539 m -1.69984,24.82539 v -24.82539 m -1.69984,24.82539 v -24.82539 m -1.69985,24.82539 v -24.82539 m -1.69985,24.82539 v -24.82539 m -1.69984,24.82539 v -24.82539 m -1.69986,24.82539 v -24.82539 m -1.69984,24.82539 v -24.82539 m -1.69984,24.82539 v -24.82539 m -1.69984,24.82539 v -24.82539 m -1.69985,24.82539 v -24.82539 m -1.69984,24.82539 v -24.82539 m -1.69985,24.82539 v -24.82539 m -1.69985,24.82539 v -24.82539 m -1.69984,24.82539 v -24.82539 m -1.69984,24.82539 v -24.82539 m -1.69984,24.82539 v -24.82539 m -1.69985,24.82539 v -24.82539 m -1.69985,24.82539 v -24.82539 m -1.69984,24.82539 v -24.82539 m -1.69983,24.82539 v -24.82539 m -1.69987,24.82539 v -24.82539 m -1.69984,24.82539 v -24.82539 m -1.69984,24.82539 v -24.82539 m -1.69986,24.82539 v -24.82539 m -1.69984,24.82539 v -24.82539 m -1.69983,24.82539 v -24.82539 m -1.69986,24.82539 v -24.82539 m -1.69984,24.82539 v -24.82539 m -1.69984,24.82539 v -24.82539 m -1.69985,24.82539 v -24.82539 m -1.69985,24.82539 v -24.82539 m -1.69983,24.82539 v -24.82539 m -1.69985,24.82539 v -24.82539 m -1.69985,24.82539 v -24.82539 m -1.69984,24.82539 v -24.82539 m -1.69985,24.82539 v -24.82539 m -1.69985,24.82539 v -24.82539 m -1.69984,24.82539 v -24.82539 m -1.69985,24.82539 v -24.82539 m -1.69984,24.82539 v -24.82539 m -1.69984,24.82539 v -24.82539 m -1.69986,24.82539 v -24.82539 m -1.69984,24.82539 v -24.82539 m -1.69983,24.82539 v -24.82539 m -1.69986,24.82539 v -24.82539 m -1.69984,24.82539 v -24.82539 m -1.69984,24.82539 v -24.82539 m -1.69986,24.82539 v -24.82539 m -1.69984,24.82539 v -24.82539 m -1.69983,24.82539 v -24.82539 m -1.69985,24.82539 v -24.82539 m -1.69985,24.82539 v -24.82539 m -1.69984,24.82539 v -24.82539 m -1.69986,24.82539 v -24.82539 m -1.69984,24.82539 v -24.82539 m -1.69984,24.82539 v -24.82539 m -1.69985,24.82539 v -24.82539 m -1.69984,24.82539 v -24.82539 m -1.69985,24.82539 v -24.82539 m -1.69985,24.82539 v -24.82539 m -1.69983,24.82539 v -24.82539 m -1.69984,24.82539 v -24.82539 m -1.69986,24.82539 v -24.82539 m -1.69984,24.82539 v -24.82539 m -1.69984,24.82539 v -24.82539 m -1.69986,24.82539 v -24.82539 m -1.69983,24.82539 v -24.82539 m -1.69984,24.82539 v -24.82539 m -1.69985,24.82539 v -24.82539 m -1.69986,24.82539 v -24.82539 m -1.69984,24.82539 v -24.82539 m -1.69985,24.82539 v -24.82539 m -1.69984,24.82539 v -24.82539 m -1.69984,24.82539 v -24.82539 m -1.69985,24.82539 v -24.82539 m -1.69984,24.82539 v -24.82539 m -1.69985,24.82539 v -24.82539 m -1.69985,24.82539 v -24.82539 m 0,24.82539 v -24.82539"
         inkscape:path-effect="#path-effect7" /></g></g><style
     type="text/css"
     id="style1">
	.st0{fill:#000000;}
</style><style
     type="text/css"
     id="style1-7">
	.st0{fill:#000000;}
</style></svg>
