<?xml version="1.0" encoding="UTF-8" standalone="no"?>
<!-- Created with Inkscape (http://www.inkscape.org/) -->

<svg
   version="1.1"
   id="svg1"
   width="100cm"
   height="100cm"
   viewBox="0 0 1000 1000"
   sodipodi:docname="Cuff_ribbed_right.svg"
   inkscape:version="1.4.2 (f4327f4, 2025-05-13)"
   inkscape:export-filename="ГОТОВЫЕ МАКЕТЫ\ПРАВАЯ МАНЖЕТА ИЗ РИБАНЫ.svg"
   inkscape:export-xdpi="96"
   inkscape:export-ydpi="96"
   xml:space="preserve"
   xmlns:inkscape="http://www.inkscape.org/namespaces/inkscape"
   xmlns:sodipodi="http://sodipodi.sourceforge.net/DTD/sodipodi-0.dtd"
   xmlns="http://www.w3.org/2000/svg"
   xmlns:svg="http://www.w3.org/2000/svg"><sodipodi:namedview
     id="namedview1"
     pagecolor="#ffffff"
     bordercolor="#000000"
     borderopacity="0.25"
     inkscape:showpageshadow="2"
     inkscape:pageopacity="0.0"
     inkscape:pagecheckerboard="false"
     inkscape:deskcolor="#d1d1d1"
     inkscape:zoom="0.5"
     inkscape:cx="1900"
     inkscape:cy="1985"
     inkscape:window-width="2560"
     inkscape:window-height="1369"
     inkscape:window-x="-8"
     inkscape:window-y="-8"
     inkscape:window-maximized="1"
     inkscape:current-layer="layer9"
     inkscape:document-units="cm"
     showgrid="true"
     showguides="false"
     inkscape:lockguides="false"><inkscape:page
       x="0"
       y="0"
       width="1000"
       height="1000"
       id="page2"
       margin="0"
       bleed="0" /><inkscape:grid
       id="grid31"
       units="cm"
       originx="140"
       originy="0"
       spacingx="2"
       spacingy="9.9999999"
       empcolor="#0099e5"
       empopacity="0.30196078"
       color="#0099e5"
       opacity="0.14902"
       empspacing="5"
       enabled="false"
       visible="true" /><inkscape:grid
       id="grid32"
       units="mm"
       originx="0"
       originy="0"
       spacingx="0"
       spacingy="0"
       empcolor="#0099e5"
       empopacity="0.30196078"
       color="#0099e5"
       opacity="0.14902"
       empspacing="5"
       enabled="true"
       visible="true" /></sodipodi:namedview><defs
     id="defs1" /><g
     inkscape:groupmode="layer"
     id="layer8"
     inkscape:label="МАНЖЕТЫ ИЗ РИБАНЫ"
     style="display:inline"><g
       inkscape:groupmode="layer"
       id="layer9"
       inkscape:label="ПРАВАЯ МАНЖЕТЫ ИЗ РИБАНЫ"><path
         id="panel"
         style="display:inline;fill:none;stroke:#000000;stroke-width:0.264583"
         inkscape:label="path9"
         d="M 430.39553,532.88747 C 427.88732,540 426.57458,547.67031 426,555.18938 M 424.79999,532.62802 421.5,554.83425 m -28.54148,-24.04058 c 1.24147,4.52751 1.62802,15.17681 1.81085,22.71867 m -0.56938,-22.62455 c 1.31948,6.03559 1.8,15.50816 1.80001,22.66128 M 401.39999,531.18966 402,553.89014 M 399.59999,531.40115 400.5,553.8488 m -4.50001,-22.89878 c 0.98191,7.4217 1.23387,15.13041 1.50001,22.75408 M 397.79999,531.01688 399,553.77645 m 4.19999,-22.46628 0.30001,22.6523 M 413.99999,531.93226 412.5,554.40308 m 3.29999,-22.278 L 414,554.45194 M 417.59999,532.14432 415.5,554.5008 M 422.99999,532.55133 420,554.7451 m -15.00001,-23.35138 c 0.0574,-0.21427 -0.0407,22.61649 -0.0407,22.61649 m 1.8407,-22.36054 L 406.5,554.08651 M 408.59999,531.71753 408,554.15878 m 2.39999,-22.34364 -0.89999,22.3914 m 2.69999,-22.37533 -1.24568,22.47192 m 17.44568,-21.57761 c -1.8,7.27448 -3.17123,14.69475 -3.89999,22.17367 m 2.09999,-22.25468 c -1.66322,7.28097 -2.60318,14.5806 -3.67001,22.24374 m -1.72999,-22.55028 -2.66252,22.30941 M 419.39999,532.33046 417,554.54966 m 14.54744,-21.59777 -39.1282,-2.18838 c 1.48302,6.91085 1.32816,15.05004 1.79659,22.72178 l 32.44457,1.58523 c 1.06537,-10.19105 2.69439,-17.56394 4.88704,-22.11863 z" /></g></g><style
     type="text/css"
     id="style1">
	.st0{fill:#000000;}
</style><style
     type="text/css"
     id="style1-7">
	.st0{fill:#000000;}
</style></svg>
