<?xml version="1.0" encoding="UTF-8" standalone="no"?>
<!-- Created with Inkscape (http://www.inkscape.org/) -->

<svg
   version="1.1"
   id="svg1"
   width="100cm"
   height="100cm"
   viewBox="0 0 1000 1000"
   sodipodi:docname="Cuff_ribbed_preview.svg"
   inkscape:version="1.4.2 (f4327f4, 2025-05-13)"
   inkscape:export-filename="ГОТОВЫЕ МАКЕТЫ\ПРАВАЯ МАНЖЕТА ИЗ РИБАНЫ.svg"
   inkscape:export-xdpi="96"
   inkscape:export-ydpi="96"
   xml:space="preserve"
   xmlns:inkscape="http://www.inkscape.org/namespaces/inkscape"
   xmlns:sodipodi="http://sodipodi.sourceforge.net/DTD/sodipodi-0.dtd"
   xmlns="http://www.w3.org/2000/svg"
   xmlns:svg="http://www.w3.org/2000/svg"><sodipodi:namedview
     id="namedview1"
     pagecolor="#ffffff"
     bordercolor="#000000"
     borderopacity="0.25"
     inkscape:showpageshadow="2"
     inkscape:pageopacity="0.0"
     inkscape:pagecheckerboard="false"
     inkscape:deskcolor="#d1d1d1"
     inkscape:zoom="0.25"
     inkscape:cx="1080"
     inkscape:cy="2118"
     inkscape:window-width="2560"
     inkscape:window-height="1369"
     inkscape:window-x="-8"
     inkscape:window-y="-8"
     inkscape:window-maximized="1"
     inkscape:current-layer="layer9"
     inkscape:document-units="cm"
     showgrid="true"
     showguides="false"
     inkscape:lockguides="false"><inkscape:page
       x="0"
       y="0"
       width="1000"
       height="1000"
       id="page2"
       margin="0"
       bleed="0" /><inkscape:grid
       id="grid31"
       units="cm"
       originx="140"
       originy="0"
       spacingx="2"
       spacingy="9.9999999"
       empcolor="#0099e5"
       empopacity="0.30196078"
       color="#0099e5"
       opacity="0.14902"
       empspacing="5"
       enabled="false"
       visible="true" /><inkscape:grid
       id="grid32"
       units="mm"
       originx="0"
       originy="0"
       spacingx="0"
       spacingy="0"
       empcolor="#0099e5"
       empopacity="0.30196078"
       color="#0099e5"
       opacity="0.14902"
       empspacing="5"
       enabled="true"
       visible="true" /></sodipodi:namedview><defs
     id="defs1" /><g
     inkscape:groupmode="layer"
     id="layer8"
     inkscape:label="МАНЖЕТЫ ИЗ РИБАНЫ"
     style="display:inline"><g
       inkscape:groupmode="layer"
       id="layer9"
       inkscape:label="ПРАВАЯ МАНЖЕТЫ ИЗ РИБАНЫ"><path
         id="path12-1"
         style="display:inline;fill:none;stroke:#000000;stroke-width:3.6953"
         inkscape:label="path9"
         d="m 759.86416,601.17501 c -35.03094,99.33717 -53.36532,206.4646 -61.3902,311.47972 M 681.71402,597.55139 635.62469,907.6948 M 236.99998,571.93193 c 17.33901,63.2335 22.73775,211.96699 25.29125,317.30042 m -7.95224,-315.98589 c 18.42852,84.29609 25.1397,216.59479 25.13984,316.49887 m 75.41899,-312.28279 8.38004,317.04635 m -33.51975,-314.09258 12.56999,313.5152 m -62.84941,-319.8159 c 13.71385,103.6552 17.23285,211.31893 20.9499,317.79496 m 4.18981,-316.86117 16.75994,317.87164 m 58.65919,-313.77541 4.19008,316.37345 M 530.87577,587.83406 509.92615,901.67287 M 556.01548,590.52708 530.87591,902.35527 M 581.15519,590.7958 551.82567,903.03768 M 656.57431,596.4803 614.67494,906.4497 M 405.17723,580.31253 c 0.80167,-2.99259 -0.56844,315.87332 -0.56844,315.87332 m 25.70815,-312.29859 -4.18981,313.36424 m 29.32952,-312.41647 -8.37977,313.42582 M 480.59636,586.19831 468.02664,898.92789 M 505.73607,586.42274 488.33826,900.27692 M 731.99344,598.91313 C 706.85373,700.51218 687.70243,804.14742 677.52421,908.6018 M 706.85373,597.7817 C 683.62436,699.47141 670.4964,801.42173 655.59652,908.44899 M 631.43461,593.50042 594.2485,905.08488 M 606.2949,593.39552 572.77542,903.72009 M 775.9523,602.07473 229.46813,571.51071 c 20.71261,96.52041 18.54975,210.19645 25.09208,317.34384 l 453.13724,22.14012 c 14.87949,-142.33335 37.6312,-245.30684 68.25485,-308.91994 z" /><path
         id="path12-1-4"
         style="display:inline;fill:none;stroke:#000000;stroke-width:3.92039"
         inkscape:label="path9"
         d="m 200.61987,125.11768 c 37.16478,105.38814 56.61598,219.04104 65.12967,330.45298 m 17.78085,-334.29732 48.89678,329.03527 M 755.33342,94.093321 C 736.93825,161.17857 731.21064,318.97191 728.5016,430.72154 M 736.93825,95.487921 C 717.38718,184.91877 710.2672,325.27621 710.26705,431.26578 M 630.25405,99.960804 621.36355,436.3195 M 656.9251,103.0945 643.58942,435.70695 M 710.2672,96.409998 C 695.71799,206.37918 691.98464,320.60107 688.04117,433.5629 M 683.59615,97.40068 665.8153,434.63492 M 603.583,101.74643 599.13767,437.39123 M 443.55669,110.96409 465.78242,443.91986 m -48.89678,-330.0987 26.67091,330.82267 M 390.21459,114.10624 421.33067,445.3678 M 310.20144,120.13701 354.65304,448.98765 M 576.91195,102.98441 c -0.85051,-3.17489 0.60306,335.1142 0.60306,335.1142 M 550.2409,106.77689 554.68592,439.22916 M 523.56984,107.78239 532.46005,440.3 M 496.89879,109.2287 510.23417,441.00768 M 470.22774,109.46681 488.6853,442.43887 M 230.18829,122.71803 c 26.67105,107.78779 46.98891,217.73578 57.78713,328.55281 M 256.85934,121.51768 c 24.64435,107.88396 38.57197,216.0444 54.37946,329.59106 M 336.87249,116.9756 376.32372,447.53971 M 363.54354,116.86432 399.10479,446.09177 M 183.55233,126.07221 763.32466,93.646433 C 741.35038,196.04623 743.64498,316.64664 736.70414,430.32073 L 255.96482,453.80948 C 240.17897,302.80615 216.04137,193.56019 183.55233,126.07221 Z" /></g></g><style
     type="text/css"
     id="style1">
	.st0{fill:#000000;}
</style><style
     type="text/css"
     id="style1-7">
	.st0{fill:#000000;}
</style></svg>
